<?xml version="1.0" encoding="UTF-8" standalone="no"?>
<!-- Created with Inkscape (http://www.inkscape.org/) -->

<svg
   width="60.31002mm"
   height="9.479394mm"
   viewBox="0 0 60.310021 9.4793936"
   version="1.1"
   id="svg1"
   xml:space="preserve"
   sodipodi:docname="logo.svg"
   inkscape:version="1.3.2 (091e20e, 2023-11-25, custom)"
   xmlns:inkscape="http://www.inkscape.org/namespaces/inkscape"
   xmlns:sodipodi="http://sodipodi.sourceforge.net/DTD/sodipodi-0.dtd"
   xmlns="http://www.w3.org/2000/svg"
   xmlns:svg="http://www.w3.org/2000/svg"><sodipodi:namedview
     id="namedview1"
     pagecolor="#ffffff"
     bordercolor="#000000"
     borderopacity="0.25"
     inkscape:showpageshadow="2"
     inkscape:pageopacity="0.0"
     inkscape:pagecheckerboard="0"
     inkscape:deskcolor="#d1d1d1"
     inkscape:document-units="mm"
     showguides="false"
     inkscape:zoom="1.3843855"
     inkscape:cx="154.58122"
     inkscape:cy="38.645304"
     inkscape:window-width="1920"
     inkscape:window-height="991"
     inkscape:window-x="-9"
     inkscape:window-y="-9"
     inkscape:window-maximized="1"
     inkscape:current-layer="layer1" /><defs
     id="defs1" /><g
     inkscape:label="Layer 1"
     inkscape:groupmode="layer"
     id="layer1"
     transform="translate(-26.458452,-46.661)"><g
       id="path1"
       inkscape:label="konum"
       transform="matrix(0.80037297,0,0,0.80037297,5.0932363,9.5937916)"><path
         id="path4"
         style="color:#000000;fill:#cc302e;-inkscape-stroke:none;paint-order:stroke fill markers"
         d="m 54.017375,46.312419 c -2.382315,0 -4.33772,1.955406 -4.33772,4.337719 0,1.809127 0.930301,3.377751 1.769401,4.576465 0.839099,1.198715 1.683618,2.041219 1.683618,2.041219 l 0.890902,0.888318 0.8847,-0.896586 c 0,0 0.840103,-0.850443 1.677417,-2.052588 0.837316,-1.202145 1.769918,-2.761511 1.769918,-4.556828 0,-2.382313 -1.955922,-4.337719 -4.338236,-4.337719 z m -1.033012,6.251814 c 0.332873,0.183746 0.635623,0.4377 1.033012,0.4377 0.395844,0 0.69746,-0.253207 1.029394,-0.435633 -0.215354,0.434568 -0.238092,0.818621 -0.511596,1.211296 -0.261638,0.375637 -0.296463,0.368067 -0.521416,0.640271 -0.222755,-0.267485 -0.257231,-0.257549 -0.51573,-0.626835 -0.275061,-0.392945 -0.29751,-0.789578 -0.513664,-1.226799 z"
         inkscape:label="konumdisi" /><path
         style="color:#000000;fill:#ffffff;-inkscape-stroke:none;paint-order:stroke fill markers"
         d="m 54.017598,47.563097 c -1.719889,0 -3.086979,1.367091 -3.086979,3.086979 0,2.645984 3.086979,5.732965 3.086979,5.732965 0,0 3.086981,-3.13108 3.086981,-5.732965 0,-1.719888 -1.367091,-3.086979 -3.086981,-3.086979 z m 0,4.189473 c -0.617395,0 -1.102492,-0.485097 -1.102492,-1.102494 0,-0.617395 0.485097,-1.102492 1.102492,-1.102492 0.617396,0 1.102494,0.485097 1.102494,1.102492 0,0.617397 -0.485098,1.102494 -1.102494,1.102494 z"
         id="path5"
         inkscape:label="konumici" /></g><path
       d="m 55.673419,51.035452 h 3.191878 q -0.0082,0.681043 -0.114875,1.280033 -0.106669,0.590785 -0.516936,1.173364 -0.451294,0.631812 -1.115927,0.918999 -0.656427,0.287187 -1.435935,0.287187 -1.460551,0 -2.379549,-0.894383 -0.918998,-0.902587 -0.918998,-2.363138 0,-1.509783 0.927203,-2.420576 0.935409,-0.910793 2.428782,-0.910793 0.951819,0 1.665684,0.434883 0.72207,0.426678 1.124132,1.296444 l -1.526194,0.631811 q -0.164107,-0.434883 -0.508731,-0.705659 -0.344624,-0.270776 -0.828739,-0.270776 -0.746687,0 -1.156954,0.557963 -0.402061,0.557963 -0.443088,1.222596 -0.0082,0.04102 -0.0082,0.09026 0,0.04102 0,0.08205 0,0.0082 0,0.02462 0,0.0082 0,0.02462 0.01641,0.705659 0.434883,1.296444 0.418473,0.590784 1.19798,0.590784 0.525142,0 0.886177,-0.270776 0.361035,-0.270776 0.410267,-0.804124 l -1.312855,-0.0082 v -1.263623 z m 7.688413,-2.732379 h 1.608247 v 3.479065 q 0,0.607195 -0.09846,1.173364 -0.09026,0.566169 -0.549758,1.017462 -0.295393,0.295393 -0.70566,0.451294 -0.402062,0.147696 -0.828739,0.196928 -0.131286,0.01641 -0.262571,0.02462 -0.131286,0.0082 -0.254366,0.0082 -0.12308,0 -0.254365,-0.0082 -0.131286,-0.0082 -0.262571,-0.02462 -0.426678,-0.04923 -0.836945,-0.196928 -0.402062,-0.155901 -0.697454,-0.451294 -0.459499,-0.451293 -0.557964,-1.017462 -0.09026,-0.566169 -0.09026,-1.165159 v -3.48727 h 1.608247 v 3.257521 q 0,0.05744 0,0.106669 0,0.04102 0,0.09026 0.0082,0.557963 0.188723,1.025668 0.188722,0.467704 0.902587,0.467704 0.713865,0 0.894382,-0.467704 0.188723,-0.467705 0.196929,-1.025668 0,-0.04923 0,-0.09026 0,-0.04923 0,-0.09846 z m 6.145799,1.362087 h -1.911845 v 1.033873 h 1.813381 v 1.362087 h -1.813381 v 1.066694 h 1.911845 v 1.362087 h -3.520092 v -6.186828 h 3.520092 z M 74.5375,48.647698 73.897483,49.89491 q -0.221544,-0.180518 -0.500526,-0.287187 -0.270776,-0.114875 -0.566168,-0.114875 -0.04103,0 -0.09026,0.0082 -0.04923,0 -0.09846,0.01641 -0.188723,0.04102 -0.344624,0.164107 -0.155902,0.12308 -0.155902,0.328213 0,0.196929 0.147696,0.320009 0.147696,0.114875 0.320009,0.188723 0.06565,0.02461 0.12308,0.04923 0.06565,0.01641 0.12308,0.03282 l 0.410267,0.114875 q 0.648222,0.196928 1.083105,0.574374 0.443089,0.36924 0.443089,1.124132 0,0.03282 0,0.06565 0,0.03282 0,0.06565 -0.01641,0.426677 -0.155902,0.836945 -0.139491,0.402061 -0.484115,0.697454 -0.311803,0.270776 -0.70566,0.402061 -0.393856,0.131286 -0.804123,0.164107 -0.06565,0 -0.131286,0 -0.05744,0.0082 -0.114874,0.0082 -0.58258,0 -1.140543,-0.180518 Q 70.6974,54.284776 70.22149,53.956562 l 0.689249,-1.304649 q 0.303597,0.270776 0.656427,0.459499 0.361035,0.188723 0.771302,0.188723 0.01641,0 0.03282,0 0.01641,0 0.03282,0 0.270777,-0.01641 0.492321,-0.164107 0.221544,-0.155902 0.221544,-0.459499 0,-0.22975 -0.188723,-0.369241 -0.180517,-0.139491 -0.410267,-0.221544 -0.09846,-0.03282 -0.196928,-0.05744 -0.09846,-0.03282 -0.180518,-0.05744 -0.01641,-0.0082 -0.04103,-0.0082 -0.01641,-0.0082 -0.03282,-0.01641 -0.730276,-0.205133 -1.165159,-0.525142 -0.434883,-0.320008 -0.434883,-1.197979 0,-0.943615 0.59899,-1.509783 0.607195,-0.566169 1.534399,-0.566169 0.188723,0 0.385651,0.02461 0.196928,0.01641 0.393856,0.06565 0.311803,0.06565 0.607196,0.172312 0.303597,0.10667 0.549757,0.246161 z m 5.054484,0 -0.640017,1.247212 q -0.221544,-0.180518 -0.500525,-0.287187 -0.270777,-0.114875 -0.566169,-0.114875 -0.04103,0 -0.09026,0.0082 -0.04923,0 -0.09846,0.01641 -0.188723,0.04102 -0.344624,0.164107 -0.155902,0.12308 -0.155902,0.328213 0,0.196929 0.147696,0.320009 0.147696,0.114875 0.320009,0.188723 0.06565,0.02461 0.12308,0.04923 0.06565,0.01641 0.12308,0.03282 l 0.410267,0.114875 q 0.648222,0.196928 1.083105,0.574374 0.443089,0.36924 0.443089,1.124132 0,0.03282 0,0.06565 0,0.03282 0,0.06565 -0.01641,0.426677 -0.155902,0.836945 -0.139491,0.402061 -0.484115,0.697454 -0.311803,0.270776 -0.705659,0.402061 -0.393857,0.131286 -0.804124,0.164107 -0.06565,0 -0.131285,0 -0.05744,0.0082 -0.114875,0.0082 -0.582579,0 -1.140542,-0.180518 -0.557963,-0.188722 -1.033873,-0.516936 l 0.689249,-1.304649 q 0.303597,0.270776 0.656427,0.459499 0.361035,0.188723 0.771301,0.188723 0.01641,0 0.03282,0 0.01641,0 0.03282,0 0.270777,-0.01641 0.492321,-0.164107 0.221544,-0.155902 0.221544,-0.459499 0,-0.22975 -0.188723,-0.369241 -0.180517,-0.139491 -0.410267,-0.221544 -0.09846,-0.03282 -0.196928,-0.05744 -0.09846,-0.03282 -0.180518,-0.05744 -0.01641,-0.0082 -0.04103,-0.0082 -0.01641,-0.0082 -0.03282,-0.01641 -0.730276,-0.205133 -1.165159,-0.525142 -0.434883,-0.320008 -0.434883,-1.197979 0,-0.943615 0.59899,-1.509783 0.607195,-0.566169 1.534398,-0.566169 0.188723,0 0.385651,0.02461 0.196928,0.01641 0.393857,0.06565 0.311803,0.06565 0.607195,0.172312 0.303598,0.10667 0.549758,0.246161 z m 4.217538,3.306752 1.944673,2.535451 h -2.00211 l -1.517988,-2.379549 h -0.01641 v 2.379549 H 80.60944 v -6.186828 h 2.404166 q 0.918998,0.0082 1.534398,0.467705 0.615403,0.451293 0.615403,1.44414 0,0.640017 -0.352832,1.140542 -0.344624,0.492321 -1.001051,0.607196 z m -1.591836,-2.420576 v 1.542605 h 0.155902 q 0.04103,0.0082 0.08205,0.0082 0.04103,0 0.07385,0 0.361035,-0.01641 0.656427,-0.164107 0.303598,-0.155902 0.303598,-0.607196 0,-0.451293 -0.303598,-0.59899 -0.295392,-0.155901 -0.656427,-0.172312 -0.03282,0 -0.07385,0 -0.04102,0 -0.08205,0 z"
       id="text1"
       style="font-size:10.077px;line-height:1;font-family:Futura-Bold;-inkscape-font-specification:Futura-Bold;fill:#ffffff;stroke:#cc302e;stroke-width:2.02876;stroke-linecap:round;stroke-linejoin:round;paint-order:stroke fill markers"
       inkscape:label="GUESSR"
       aria-label="GUESSR" /><path
       d="m 29.847392,51.44278 -2.345848,-3.307815 h 1.983001 l 1.1898,1.729853 1.189801,-1.729853 h 1.983002 l -2.345849,3.307815 v 3.054666 h -1.653907 z m 6.910976,-1.907056 v 4.961722 h -1.653907 v -4.961722 h -1.367005 v -1.400759 h 4.387917 v 1.400759 z m 5.830875,-1.400759 h 1.653907 v 3.577841 q 0,0.624434 -0.10126,1.206677 -0.09282,0.582243 -0.565366,1.04635 -0.303779,0.303779 -0.725694,0.464106 -0.413477,0.15189 -0.852268,0.202519 -0.135014,0.01688 -0.270026,0.02532 -0.135013,0.0084 -0.261587,0.0084 -0.126575,0 -0.261588,-0.0084 -0.135013,-0.0084 -0.270026,-0.02532 -0.438792,-0.05063 -0.860707,-0.202519 -0.413477,-0.160327 -0.717255,-0.464106 -0.472545,-0.464107 -0.573805,-1.04635 -0.09282,-0.582243 -0.09282,-1.198239 v -3.586279 h 1.653907 v 3.350007 q 0,0.05907 0,0.109697 0,0.04219 0,0.09282 0.0084,0.573804 0.194081,1.054788 0.194081,0.480983 0.928214,0.480983 0.734132,0 0.919774,-0.480983 0.194082,-0.480984 0.20252,-1.054788 0,-0.05063 0,-0.09282 0,-0.05063 0,-0.101259 z"
       id="text3"
       style="font-size:10.3631px;line-height:1;font-family:Futura-Bold;-inkscape-font-specification:Futura-Bold;fill:#ffffff;stroke:#cc302e;stroke-width:2.08638;stroke-linecap:round;stroke-linejoin:round;paint-order:stroke fill markers"
       inkscape:label="YTU"
       aria-label="YTU" /></g><style
     type="text/css"
     id="style1">
	.st0{fill:none;}
</style></svg>
